# xmcd
#
# Track frame offsets:
#	182
#	15592
#	32930
#	48230
#	60825
#	74577
#	86985
#	102195
#	116992
#	131425
#	147467
#	159745
#	174200
#	188972
#
# Disc length: 2782 seconds
#
# Revision: 4
# Processed by: cddbd v1.5.2PL0 Copyright (c) Steve Scherf et al.
# Submitted via: dBpowerAMP V4.0
#
DISCID=c50adc0e
DTITLE=Sixteen Horsepower - Sackcloth 'n' Ashes
DYEAR=1996
DGENRE=Alternative
TTITLE0=Seen What I Saw
TTITLE1=Black Soul Choir
TTITLE2=Haw
TTITLE3=Scrawled In Sap
TTITLE4=Horse Head
TTITLE5=Ruthie Lingle
TTITLE6=Harm's Way
TTITLE7=Black Bush
TTITLE8=Heel On The Shovel
TTITLE9=American Wheeze
TTITLE10=Red Neck Reel
TTITLE11=Prison Show Romp
TTITLE12=Neck On The New Blade
TTITLE13=Strong Man
EXTD=
EXTT0=
EXTT1=
EXTT2=
EXTT3=
EXTT4=
EXTT5=
EXTT6=
EXTT7=
EXTT8=
EXTT9=
EXTT10=
EXTT11=
EXTT12=
EXTT13=
PLAYORDER=
